HIERARCHY
ROOT SpineBase
{
  OFFSET 0.000000 0.000000 0.000000
  CHANNELS 6 Xposition Yposition Zposition Zrotation Xrotation Yrotation
  JOINT SpineMid
  {
    OFFSET 0.000000 32.523676 0.000000
    CHANNELS 3 Zrotation Xrotation Yrotation
    JOINT SpineShoulder
    {
      OFFSET -0.113663 23.758986 -1.072240
      CHANNELS 3 Zrotation Xrotation Yrotation
      JOINT Neck
      {
        OFFSET 0.042442 7.819182 -0.811366
        CHANNELS 3 Zrotation Xrotation Yrotation
        JOINT Head
        {
          OFFSET -8.370164 11.549864 2.153479
          CHANNELS 3 Zrotation Xrotation Yrotation
          End Site
          {
            OFFSET 0 0 0
          }
        }
      }
      JOINT ShoulderLeft
      {
        OFFSET -8.223826 -0.815707 12.287876
        CHANNELS 3 Zrotation Xrotation Yrotation
        JOINT ElbowLeft
        {
          OFFSET 0.962860 -22.719099 13.420753
          CHANNELS 3 Zrotation Xrotation Yrotation
          JOINT WristLeft
          {
            OFFSET -13.495586 -21.231438 8.478033
            CHANNELS 3 Zrotation Xrotation Yrotation
            JOINT HandLeft
            {
              OFFSET 0.980123 -8.161685 -3.689557
              CHANNELS 3 Zrotation Xrotation Yrotation
              JOINT HandTipLeft
              {
                OFFSET -0.470020 -0.502287 -0.904939
                CHANNELS 3 Zrotation Xrotation Yrotation
                End Site
                {
                  OFFSET 0 0 0
                }
              }
              JOINT ThumbLeft
              {
                OFFSET -0.859734 -0.214747 -1.688489
                CHANNELS 3 Zrotation Xrotation Yrotation
                End Site
                {
                  OFFSET 0 0 0
                }
              }
            }
          }
        }
      }
      JOINT ShoulderRight
      {
        OFFSET 6.250181 -6.907138 -12.987230
        CHANNELS 3 Zrotation Xrotation Yrotation
        JOINT ElbowRight
        {
          OFFSET -1.336473 -27.209858 -2.600685
          CHANNELS 3 Zrotation Xrotation Yrotation
          JOINT WristRight
          {
            OFFSET -17.125867 -21.261211 6.143353
            CHANNELS 3 Zrotation Xrotation Yrotation
            JOINT HandRight
            {
              OFFSET -10.018003 -13.688113 1.089421
              CHANNELS 3 Zrotation Xrotation Yrotation
              JOINT HandTipRight
              {
                OFFSET -4.099534 -6.391678 -0.934106
                CHANNELS 3 Zrotation Xrotation Yrotation
                End Site
                {
                  OFFSET 0 0 0
                }
              }
              JOINT ThumbRight
              {
                OFFSET 3.292679 -1.174632 -0.746153
                CHANNELS 3 Zrotation Xrotation Yrotation
                End Site
                {
                  OFFSET 0 0 0
                }
              }
            }
          }
        }
      }
    }
  }
  JOINT HipLeft
  {
    OFFSET -2.694079 -0.816550 0.171866
    CHANNELS 3 Zrotation Xrotation Yrotation
    JOINT KneeLeft
    {
      OFFSET 13.016701 -28.520409 26.819995
      CHANNELS 3 Zrotation Xrotation Yrotation
      JOINT AnkleLeft
      {
        OFFSET -8.234051 -48.602138 -7.565198
        CHANNELS 3 Zrotation Xrotation Yrotation
        JOINT FootLeft
        {
          OFFSET -6.457178 -6.409685 3.525068
          CHANNELS 3 Zrotation Xrotation Yrotation
          End Site
          {
            OFFSET 0 0 0
          }
        }
      }
    }
  }
  JOINT HipRight
  {
    OFFSET 3.336683 1.417875 -7.070914
    CHANNELS 3 Zrotation Xrotation Yrotation
    JOINT KneeRight
    {
      OFFSET 0.308208 -40.541027 1.277136
      CHANNELS 3 Zrotation Xrotation Yrotation
      JOINT AnkleRight
      {
        OFFSET 7.864520 -37.929712 5.410792
        CHANNELS 3 Zrotation Xrotation Yrotation
        JOINT FootRight
        {
          OFFSET -2.846116 -8.469341 -4.624856
          CHANNELS 3 Zrotation Xrotation Yrotation
          End Site
          {
            OFFSET 0 0 0
          }
        }
      }
    }
  }
}
MOTION
Frames: 15
Frame Time: 0.033333
-12.814022 88.249725 378.341957 -3.295006 -10.857142 52.700830 0.071571 -0.168594 -53.222957 0.710124 0.466958 -0.054587 -19.784868 6.062885 4.864261 0.000000 0.000000 0.000000 2.353718 10.448314 -0.028106 -0.000000 0.000000 0.000000 9.496515 20.208854 -3.251419 21.383870 -54.296400 23.514121 0.000000 0.000000 0.000000 0.000000 0.000000 0.000000 6.533303 8.568641 -1.024317 20.544310 13.723336 -6.741132 -4.065816 -11.771303 6.466791 -10.852408 7.290348 -8.208869 0.000000 0.000000 0.000000 0.000000 0.000000 0.000000 20.166566 31.610488 -64.212015 55.220143 -44.588242 33.640177 -34.064425 55.194268 -15.965454 0.000000 0.000000 0.000000 11.078013 -5.577503 -53.165169 -17.108111 -0.925821 -2.121384 -20.647917 19.102732 17.814519 0.000000 0.000000 0.000000
-12.310260 88.166863 377.899212 -2.323887 -10.728888 53.753859 -0.272587 -0.227917 -54.137448 1.070515 0.842603 -0.007681 -22.870199 6.042082 5.802991 0.000000 0.000000 0.000000 1.195161 10.247420 -0.039285 -0.000000 0.000000 0.000000 11.963537 19.927668 -4.685879 24.553779 -55.883302 25.303571 0.000000 0.000000 0.000000 0.000000 0.000000 0.000000 6.350478 10.848019 -1.500378 23.913859 13.745773 -7.816279 -10.230897 -10.328929 2.170317 -1.040706 4.494472 -7.518803 0.000000 0.000000 0.000000 0.000000 0.000000 0.000000 20.992519 32.148466 -65.028232 54.440410 -47.839528 34.538048 -45.609526 53.783344 -8.443302 0.000000 0.000000 0.000000 9.399659 -4.955249 -54.182183 -16.542211 0.104405 -1.872783 -25.269473 21.412851 20.246841 0.000000 0.000000 0.000000
-12.185994 87.945076 377.727356 -1.281715 -10.476954 54.100369 -0.510501 -0.129129 -54.324434 1.159914 1.058507 0.032689 -25.469554 6.707428 7.511728 0.000000 0.000000 0.000000 0.301941 9.910506 -0.049220 -0.000000 0.000000 0.000000 14.027766 17.379703 -5.922352 24.399455 -54.427966 23.422151 0.000000 0.000000 0.000000 0.000000 0.000000 0.000000 3.324723 14.543130 -1.197104 28.938461 12.991555 -9.265700 -17.740624 -7.117803 -4.446253 12.055792 3.165446 -4.512073 0.000000 0.000000 0.000000 0.000000 0.000000 0.000000 20.868628 32.695185 -65.139517 53.423752 -50.336778 34.996998 -45.807421 56.503469 -8.472437 0.000000 0.000000 0.000000 7.695527 -3.751221 -54.461843 -14.490156 0.915046 -1.591542 -23.888335 19.617607 18.545006 0.000000 0.000000 0.000000
-12.381450 87.714181 377.827198 -0.305910 -10.135128 53.508543 -0.653113 -0.033883 -53.586321 1.174585 1.194226 0.070225 -28.079711 7.476345 9.485939 0.000000 0.000000 0.000000 -0.502782 9.487525 -0.062603 0.796569 -3.767822 2.715952 16.683341 11.040954 -11.190433 18.843713 -46.192750 16.758722 0.000000 0.000000 0.000000 0.000000 0.000000 0.000000 -2.864993 17.997661 0.299462 34.435469 12.778813 -11.825920 -18.534036 -1.657324 -10.652437 14.478608 -2.250980 5.082527 0.000000 0.000000 0.000000 0.000000 0.000000 0.000000 19.733586 33.314579 -64.303614 52.521128 -49.686330 33.960300 -46.372565 48.585722 -4.138452 0.000000 0.000000 0.000000 6.569378 -2.454885 -53.777039 -12.384228 1.181790 -1.412612 -21.359106 17.466344 16.035285 0.000000 0.000000 0.000000
-13.190937 87.558067 378.265295 0.122803 -10.043273 50.967560 -0.428473 0.057201 -50.986781 0.794831 1.166988 0.091954 -29.435233 8.154859 11.089755 0.000000 0.000000 0.000000 -0.591813 9.174162 -0.064366 1.249578 -2.610206 2.181918 19.469658 -7.305423 -12.110508 17.026292 -35.930812 5.731498 0.000000 0.000000 0.000000 0.000000 0.000000 0.000000 -10.534294 21.586583 2.865419 39.798953 12.891407 -15.041789 -15.951155 3.795255 -15.344855 12.378358 -8.583006 13.676654 0.000000 0.000000 0.000000 0.000000 0.000000 0.000000 17.084954 34.109195 -61.651654 52.372125 -46.547008 32.525127 -47.865104 40.250422 -1.019145 0.000000 0.000000 0.000000 6.969482 -1.198240 -51.224587 -10.702960 0.412212 -1.391253 -18.660138 12.978165 13.976609 0.000000 0.000000 0.000000
-13.935074 87.522678 378.697157 0.913062 -9.693447 48.294881 -0.547319 0.263874 -48.198841 0.898464 1.306477 0.114668 -30.552553 8.616936 12.163193 0.000000 0.000000 0.000000 0.497755 4.889338 0.558622 -2.263569 6.784236 -2.924677 13.036636 -3.272522 -2.713626 21.480550 -39.933502 -8.389433 0.000000 0.000000 0.000000 0.000000 0.000000 0.000000 -19.179457 24.545711 5.895093 40.808021 12.591347 -18.232271 -12.427213 0.151877 -8.879834 5.985492 -7.565214 9.811805 0.000000 0.000000 0.000000 0.000000 0.000000 0.000000 14.112692 34.735339 -58.377421 51.671195 -44.767385 31.241770 -43.294011 26.719659 5.356375 0.000000 0.000000 0.000000 6.811228 0.412652 -48.513274 -8.912357 -0.599665 -1.373949 -16.605651 10.043153 12.290678 0.000000 0.000000 0.000000
-14.537605 87.572678 379.120050 1.871067 -9.192232 45.916258 -0.811791 0.502808 -45.687395 1.212630 1.435297 0.140805 -30.837792 9.063200 12.655860 0.000000 0.000000 0.000000 -0.683792 5.209626 0.437857 -4.038854 15.069169 -9.410885 5.594053 3.721375 9.900926 20.503771 -43.488827 -3.471537 0.000000 0.000000 0.000000 0.000000 0.000000 0.000000 -29.045105 25.699973 9.330366 41.374963 12.885740 -21.375132 -8.543240 -1.755538 -3.377837 3.582253 -6.334584 8.279735 0.000000 0.000000 0.000000 0.000000 0.000000 0.000000 11.261856 35.033192 -55.125310 51.159062 -44.106257 30.459609 -36.914646 24.129690 7.146958 0.000000 0.000000 0.000000 6.119973 2.019522 -46.072278 -7.233279 -1.541203 -1.329443 -13.088110 6.622981 10.166252 0.000000 0.000000 0.000000
-15.041663 87.666305 379.510247 2.831346 -8.711594 44.248521 -0.994101 0.704433 -43.900802 1.400675 1.488690 0.172738 -30.224958 9.582315 12.736697 0.000000 0.000000 0.000000 -3.700017 9.496566 -0.392073 -2.450993 23.275063 -17.835842 -3.776185 2.383749 23.909943 17.007586 -51.274370 6.676906 0.000000 0.000000 0.000000 0.000000 0.000000 0.000000 -39.246433 26.269856 12.953491 41.048875 11.032687 -21.825491 -3.409387 -1.172051 0.985578 0.042071 -4.486189 5.954724 0.000000 0.000000 0.000000 0.000000 0.000000 0.000000 9.044135 35.278795 -52.732006 51.004968 -43.631945 29.941491 -32.896485 28.434893 4.292313 0.000000 0.000000 0.000000 5.285805 3.285444 -44.331572 -6.016784 -2.276987 -1.276134 -9.528523 4.604653 8.033363 0.000000 0.000000 0.000000
-15.419763 87.949538 379.813879 3.767965 -8.362343 43.778813 -1.028498 0.938634 -43.326578 1.509910 1.475740 0.209862 -28.708333 10.182372 12.401170 0.000000 0.000000 0.000000 -9.007259 18.749500 -1.663697 3.454139 27.355652 -25.842259 -11.020615 -6.218579 34.017416 12.450361 -56.563855 7.142690 0.000000 0.000000 0.000000 0.000000 0.000000 0.000000 -46.557536 24.672372 14.867742 38.777269 11.114264 -23.482190 -2.027695 0.315127 2.507750 0.740744 -5.177760 7.566561 0.000000 0.000000 0.000000 0.000000 0.000000 0.000000 7.829493 35.592768 -51.902337 50.994905 -43.522229 29.745767 -21.012665 36.107092 -2.660567 0.000000 0.000000 0.000000 4.676547 3.696780 -43.782654 -6.208847 -2.225602 -1.227065 -6.916860 3.468177 6.626865 0.000000 0.000000 0.000000
-15.635252 88.447380 380.049849 4.612844 -8.199372 44.752938 -0.728158 1.086562 -44.223372 1.580134 1.372817 0.260975 -27.320586 10.622955 11.804109 0.000000 0.000000 0.000000 -17.795747 34.434832 -2.137071 11.889852 23.143151 -28.244071 -17.711754 -17.609779 38.458241 9.682584 -58.438496 4.382318 0.000000 0.000000 0.000000 0.000000 0.000000 0.000000 -53.924302 23.167056 16.671955 37.308159 10.657928 -24.334827 -1.079274 -0.676401 4.873197 0.366390 -4.272517 7.623394 0.000000 0.000000 0.000000 0.000000 0.000000 0.000000 7.855754 36.153935 -53.101431 50.744931 -43.242958 29.491680 -22.038888 36.646149 -3.713092 0.000000 0.000000 0.000000 4.330251 3.762027 -44.685750 -6.882749 -1.951060 -1.205551 -6.295293 3.893259 6.141087 0.000000 0.000000 0.000000
-15.080872 88.832846 379.825092 6.086299 -7.636871 48.088348 -0.880560 1.247868 -47.412239 1.936504 1.522921 0.320131 -27.143511 10.404167 10.983978 0.000000 0.000000 0.000000 -32.490167 53.836991 1.787625 20.707948 12.647564 -22.517512 -25.278225 -26.169235 38.167626 9.965315 -61.170184 2.395951 0.000000 0.000000 0.000000 0.000000 0.000000 0.000000 -59.596514 21.163788 17.092661 36.338729 10.114660 -24.384250 -14.322854 -5.070082 0.750768 13.958351 -1.580059 12.318717 0.000000 0.000000 0.000000 0.000000 0.000000 0.000000 9.259027 36.999604 -57.248736 50.909265 -45.283317 30.626656 -23.021220 38.160327 -4.091683 0.000000 0.000000 0.000000 2.353714 5.010929 -47.808326 -5.522510 -2.353023 -1.255157 -2.526242 1.747483 4.692479 0.000000 0.000000 0.000000
-14.194240 89.262667 379.222368 7.408492 -6.975408 52.534621 -0.833686 1.227630 -51.756730 2.060628 1.701351 0.375720 -27.816177 9.795695 10.299270 0.000000 0.000000 0.000000 -56.568955 69.220198 17.105309 28.857880 2.348536 -12.853909 -33.389649 -31.090503 34.810475 11.925004 -63.281237 1.448510 0.000000 0.000000 0.000000 0.000000 0.000000 0.000000 -64.142746 19.623697 17.110199 36.889579 9.025879 -23.709798 -44.122285 -11.799059 -11.243575 43.873096 8.059476 15.480533 0.000000 0.000000 0.000000 0.000000 0.000000 0.000000 12.090907 37.612213 -62.839489 50.669302 -48.567371 32.017999 -25.722221 47.381574 -10.784249 0.000000 0.000000 0.000000 0.225291 5.211629 -51.988104 -5.414604 -1.371025 -1.252357 -4.104808 3.161071 5.509354 0.000000 0.000000 0.000000
-14.069830 89.521618 379.020652 7.993442 -6.544819 56.087213 -0.540988 1.084824 -55.292834 1.855283 1.579075 0.420776 -27.429270 9.864412 10.054152 0.000000 0.000000 0.000000 -91.624641 75.890468 47.032134 35.500995 -5.764275 -2.981317 -40.838987 -32.824128 30.144171 15.256865 -61.481087 1.332702 0.000000 0.000000 0.000000 0.000000 0.000000 0.000000 -66.702039 18.597106 17.085731 37.951988 9.333370 -23.782577 -81.041562 -10.751752 -28.207864 80.560095 20.817065 10.017484 0.000000 0.000000 0.000000 0.000000 0.000000 0.000000 14.516881 37.431338 -67.327568 50.544082 -49.954912 32.584682 -21.487669 53.206372 -17.493755 0.000000 0.000000 0.000000 -0.667151 5.160931 -55.425364 -5.401751 -0.932765 -1.250457 -1.648178 1.023949 4.889590 0.000000 0.000000 0.000000
-14.297145 89.766264 378.985194 7.993321 -6.324493 58.782990 -0.084282 0.822484 -58.026928 1.623542 1.454317 0.445647 -26.945523 9.730070 9.754631 0.000000 0.000000 0.000000 -117.488032 76.463034 70.173801 41.845466 -14.032052 8.211898 -46.944604 -34.298924 23.760670 22.287051 -53.280884 3.879623 0.000000 0.000000 0.000000 0.000000 0.000000 0.000000 -67.978352 18.187214 17.080702 37.509565 8.840425 -23.703929 -105.725644 16.553254 -28.266981 106.833216 17.947080 25.041659 0.000000 0.000000 0.000000 0.000000 0.000000 0.000000 16.627904 36.869292 -70.672919 50.858251 -49.151633 32.289445 -27.280536 48.330065 -11.681507 0.000000 0.000000 0.000000 -0.735373 4.652487 -58.117110 -5.686813 -0.702528 -1.245056 2.127701 -2.361106 3.952500 0.000000 0.000000 0.000000
-14.661474 89.830583 378.890373 7.745601 -6.019131 59.612491 0.134047 0.522263 -58.907042 1.414490 1.411445 0.447504 -26.461275 9.537125 9.564253 0.000000 0.000000 0.000000 -128.789851 76.299663 81.747018 44.265257 -16.094884 11.360137 -49.429376 -38.485406 19.629841 24.262891 -47.381486 4.629919 0.000000 0.000000 0.000000 0.000000 0.000000 0.000000 -67.153735 18.424827 16.756901 36.212961 8.355438 -23.692597 -113.734345 17.440610 -29.766069 112.272905 19.281449 21.729768 0.000000 0.000000 0.000000 0.000000 0.000000 0.000000 17.257052 36.308543 -71.486540 51.316988 -49.385264 32.561976 -25.510544 48.386360 -12.147133 0.000000 0.000000 0.000000 -0.932986 3.855219 -58.966018 -5.933863 -0.397445 -1.216433 3.245254 -2.861721 3.470928 0.000000 0.000000 0.000000
